<svg width="90" height="31" viewBox="0 0 90 31" fill="none" xmlns="http://www.w3.org/2000/svg">
<path d="M28.6748 14.7822C28.7627 14.6455 28.8799 14.5625 29.0264 14.5332C29.1826 14.4941 29.3242 14.5088 29.4512 14.5771C29.5879 14.6357 29.7148 14.7139 29.832 14.8115C29.9492 14.9092 30.0225 15.0264 30.0518 15.1631C30.0908 15.2998 30.0811 15.4219 30.0225 15.5293C29.9346 15.6855 29.7734 15.998 29.5391 16.4668C29.3047 16.9258 29.0752 17.3555 28.8506 17.7559C28.6357 18.1562 28.3623 18.625 28.0303 19.1621C27.708 19.6992 27.3564 20.1777 26.9756 20.5977C26.5947 21.0176 26.1748 21.418 25.7158 21.7988C25.2666 22.1797 24.7588 22.4775 24.1924 22.6924C23.626 22.8975 23.04 23 22.4346 23C21.3506 23 20.4912 22.6875 19.8564 22.0625C19.2314 21.4375 18.9189 20.5488 18.9189 19.3965C18.9189 17.7754 19.1582 16.2471 19.6367 14.8115L19.666 14.6943C19.7344 14.4795 19.7734 14.2939 19.7832 14.1377C19.8027 13.9717 19.8076 13.835 19.7979 13.7275C19.7979 13.6201 19.7539 13.5322 19.666 13.4639C19.5879 13.3955 19.5146 13.3418 19.4463 13.3027C19.3877 13.2637 19.2754 13.2393 19.1094 13.2295C18.9434 13.21 18.8115 13.2002 18.7139 13.2002C18.6162 13.2002 18.4453 13.2051 18.2012 13.2148C17.9668 13.2148 17.7861 13.2148 17.6592 13.2148C17.4541 13.2148 17.2979 13.2246 17.1904 13.2441C17.0928 13.2539 16.9658 13.3223 16.8096 13.4492C16.6533 13.5664 16.5068 13.752 16.3701 14.0059C16.2529 14.2402 16.1748 14.4062 16.1357 14.5039C15.667 15.5684 15.374 16.2324 15.2568 16.4961C12.8252 21.6719 9.63672 24.2598 5.69141 24.2598C4.85156 24.2598 4.09473 24.1133 3.4209 23.8203C2.74707 23.5371 2.20508 23.1562 1.79492 22.6777C1.375 22.1895 1.05762 21.6523 0.842773 21.0664C0.618164 20.4707 0.505859 19.8555 0.505859 19.2207C0.505859 17.9316 0.881836 16.7939 1.63379 15.8076C2.38574 14.8213 3.33789 14.3281 4.49023 14.3281C4.60742 14.3281 4.70996 14.3672 4.79785 14.4453C4.89551 14.5137 4.94434 14.5967 4.94434 14.6943C4.94434 15.3486 5.22266 15.8809 5.7793 16.291C6.33594 16.7012 7.03418 16.9062 7.87402 16.9062C8.59668 16.9062 9.31445 16.7402 10.0273 16.4082C10.7402 16.0664 11.4385 15.5 12.1221 14.709C12.8154 13.9082 13.3818 12.9316 13.8213 11.7793C14.0947 11.0664 14.5293 9.98242 15.125 8.52734C15.7207 7.07227 16.1357 6.05664 16.3701 5.48047C15.4521 5.22656 14.5781 5.23633 13.748 5.50977C12.9277 5.77344 12.2734 6.23242 11.7852 6.88672C11.2969 7.54102 11.0527 8.29297 11.0527 9.14258C11.0527 9.5625 11.1602 9.91895 11.375 10.2119C11.5898 10.4951 11.8633 10.6367 12.1953 10.6367C12.3027 10.8613 12.3369 11.1104 12.2979 11.3838C12.2588 11.6572 12.1807 11.9404 12.0635 12.2334C11.9561 12.5264 11.7754 12.8096 11.5215 13.083C11.2773 13.3564 11.0039 13.6006 10.7012 13.8154C10.3984 14.0303 10.0322 14.2061 9.60254 14.3428C9.18262 14.4697 8.73828 14.5332 8.26953 14.5332C7.09766 14.5332 6.17969 14.1084 5.51562 13.2588C4.85156 12.3994 4.51953 11.3545 4.51953 10.124C4.51953 8.85449 4.79785 7.64355 5.35449 6.49121C5.91113 5.33887 6.66797 4.33789 7.625 3.48828C8.5918 2.62891 9.76855 1.94531 11.1553 1.4375C12.5518 0.929687 14.041 0.675781 15.623 0.675781C17.5762 0.675781 18.875 1.11035 19.5195 1.97949C20.1641 2.83887 20.1934 4.04492 19.6074 5.59766C19.1289 7.0918 18.6406 8.4541 18.1426 9.68457C18.1426 9.7041 18.1328 9.72363 18.1133 9.74316C17.7617 10.6416 17.9619 11.0908 18.7139 11.0908C19.3291 11.0908 19.8271 11.0713 20.208 11.0322C20.2959 11.0225 20.374 11.0127 20.4424 11.0029C20.5205 10.9834 20.5889 10.959 20.6475 10.9297C20.7158 10.8906 20.7695 10.8613 20.8086 10.8418C20.8574 10.8125 20.9062 10.7637 20.9551 10.6953C21.0039 10.6172 21.0381 10.5586 21.0576 10.5195C21.0869 10.4805 21.1211 10.4072 21.1602 10.2998C21.209 10.1924 21.2432 10.1143 21.2627 10.0654C21.2822 10.0068 21.3164 9.9043 21.3652 9.75781C21.4238 9.61133 21.4678 9.50391 21.4971 9.43555C21.9268 8.19531 22.3223 7.13574 22.6836 6.25684C23.0449 5.36816 23.4307 4.5332 23.8408 3.75195C24.2607 2.9707 24.6758 2.3457 25.0859 1.87695C25.5059 1.4082 25.9648 1.04199 26.4629 0.77832C26.9707 0.514648 27.5078 0.382812 28.0742 0.382812C28.8652 0.382812 29.4854 0.631836 29.9346 1.12988C30.3936 1.61816 30.623 2.37012 30.623 3.38574C30.623 4.46973 30.3594 5.59766 29.832 6.76953C29.3145 7.93164 28.5674 9.01074 27.5908 10.0068C26.624 10.9932 25.5449 11.7256 24.3535 12.2041C23.7676 12.4287 23.4746 12.9463 23.4746 13.7568C23.4746 14.4795 23.6846 15.085 24.1045 15.5732C24.5244 16.0615 25.0859 16.3057 25.7891 16.3057C26.3457 16.3057 26.8828 16.1738 27.4004 15.9102C27.9277 15.6465 28.3525 15.2705 28.6748 14.7822ZM24.7051 8.08789C24.5488 8.56641 24.4512 8.94238 24.4121 9.21582C24.373 9.47949 24.373 9.65039 24.4121 9.72852C24.4512 9.79688 24.5195 9.83105 24.6172 9.83105C25.0566 9.83105 25.5547 9.45996 26.1113 8.71777C26.6777 7.96582 26.9609 7.30664 26.9609 6.74023C26.9609 6.24219 26.751 5.99316 26.3311 5.99316C25.9502 5.99316 25.6377 6.17871 25.3936 6.5498C25.1592 6.91113 24.9297 7.42383 24.7051 8.08789ZM43.257 14.7822C43.4035 14.6357 43.5988 14.5723 43.843 14.5918C44.0871 14.6113 44.302 14.7188 44.4875 14.9141C44.673 15.1094 44.7121 15.3145 44.6047 15.5293C44.3508 16.0664 44.0871 16.5449 43.8137 16.9648C43.5402 17.3848 43.1936 17.8145 42.7736 18.2539C42.3537 18.6934 41.8508 19.0352 41.2648 19.2793C40.6887 19.5234 40.0539 19.6455 39.3605 19.6455H38.9943C38.2326 20.6904 37.3391 21.5107 36.3137 22.1064C35.2883 22.7021 34.2238 23 33.1203 23C31.7531 23 30.635 22.5459 29.7658 21.6377C28.8967 20.7197 28.4621 19.4941 28.4621 17.9609C28.4621 17.0625 28.5939 16.1445 28.8576 15.207C29.1213 14.2598 29.5021 13.3613 30.0002 12.5117C30.4982 11.6523 31.0744 10.8857 31.7287 10.2119C32.3928 9.53809 33.1545 9.00098 34.0139 8.60059C34.883 8.2002 35.7814 8 36.7092 8C38.0373 8 39.0969 8.41504 39.8879 9.24512C40.6887 10.0654 41.0891 11.3691 41.0891 13.1562C41.0891 14.2207 40.9426 15.251 40.6496 16.2471H40.8547C41.7922 16.2471 42.593 15.7588 43.257 14.7822ZM34.8195 16.7891C35.5324 16.7891 36.1379 16.4912 36.6359 15.8955C37.134 15.29 37.383 14.6504 37.383 13.9766C37.383 13.5078 37.2463 13.127 36.9729 12.834C36.6994 12.5312 36.2844 12.3799 35.7277 12.3799C35.0246 12.3799 34.4387 12.668 33.9699 13.2441C33.5012 13.8203 33.2668 14.46 33.2668 15.1631C33.2668 15.6416 33.3889 16.0322 33.633 16.335C33.8869 16.6377 34.2824 16.7891 34.8195 16.7891ZM58.1908 14.7822C58.3373 14.6357 58.5326 14.5723 58.7768 14.5918C59.0209 14.6113 59.2357 14.7188 59.4213 14.9141C59.6068 15.1094 59.6459 15.3145 59.5385 15.5293C59.3432 15.9492 59.143 16.3301 58.9379 16.6719C58.7328 17.0137 58.4691 17.3799 58.1469 17.7705C57.8344 18.1514 57.4975 18.4736 57.1361 18.7373C56.7846 18.9912 56.3598 19.2061 55.8617 19.3818C55.3637 19.5576 54.8363 19.6455 54.2797 19.6455H54.1039C53.391 20.6807 52.5707 21.501 51.643 22.1064C50.7152 22.7021 49.7777 23 48.8305 23C47.9027 23 47.1801 22.7266 46.6625 22.1797C46.1547 21.623 45.9936 20.7783 46.1791 19.6455C46.2279 19.3525 46.1449 19.1768 45.9301 19.1182C45.725 19.0596 45.559 19.1523 45.432 19.3965C45.393 19.4746 45.3637 19.5576 45.3441 19.6455C44.7777 22.4385 44.392 24.2061 44.1869 24.9482C43.5424 27.3311 42.7855 28.6641 41.9164 28.9473C41.7797 28.9863 41.643 29.0059 41.5062 29.0059C40.1 29.0059 39.3969 28.3125 39.3969 26.9258C39.3969 26.5742 39.4457 26.1787 39.5434 25.7393C39.6312 25.2998 39.7875 24.7627 40.0121 24.1279C40.227 23.5029 40.4271 22.9512 40.6127 22.4727C40.7982 21.9941 41.0766 21.291 41.4477 20.3633C41.8187 19.4355 42.1068 18.7031 42.3119 18.166C42.7123 17.1113 43.1225 15.9834 43.5424 14.7822C44.5189 11.9014 45.1537 10.1533 45.4467 9.53809C45.8178 8.74707 46.2133 8.27344 46.6332 8.11719C46.8187 8.03906 47.0482 8 47.3217 8C48.2299 8 48.6303 8.3418 48.5229 9.02539C48.4936 9.17188 48.5229 9.28906 48.6107 9.37695C48.7084 9.46484 48.8402 9.49902 49.0062 9.47949C49.1723 9.4502 49.3334 9.35742 49.4896 9.20117C50.31 8.40039 51.2865 8 52.4193 8C53.6107 8 54.5629 8.41016 55.2758 9.23047C55.9984 10.041 56.3598 11.1494 56.3598 12.5557C56.3598 13.7959 56.1693 15.0264 55.7885 16.2471C56.726 16.2471 57.5268 15.7588 58.1908 14.7822ZM49.3871 16.7891C50.1 16.7891 50.7055 16.4912 51.2035 15.8955C51.7016 15.29 51.9506 14.6504 51.9506 13.9766C51.9506 13.5078 51.8139 13.127 51.5404 12.834C51.267 12.5312 50.852 12.3799 50.2953 12.3799C49.5922 12.3799 49.0062 12.668 48.5375 13.2441C48.0687 13.8203 47.8344 14.46 47.8344 15.1631C47.8344 15.6416 47.9564 16.0322 48.2006 16.335C48.4545 16.6377 48.85 16.7891 49.3871 16.7891ZM73.1393 14.7822C73.2857 14.6357 73.4811 14.5723 73.7252 14.5918C73.9693 14.6113 74.1842 14.7188 74.3697 14.9141C74.5553 15.1094 74.5943 15.3145 74.4869 15.5293C74.2916 15.9492 74.0914 16.3301 73.8863 16.6719C73.6813 17.0137 73.4176 17.3799 73.0953 17.7705C72.7828 18.1514 72.4459 18.4736 72.0846 18.7373C71.733 18.9912 71.3082 19.2061 70.8102 19.3818C70.3121 19.5576 69.7848 19.6455 69.2281 19.6455H69.0523C68.3395 20.6807 67.5191 21.501 66.5914 22.1064C65.6637 22.7021 64.7262 23 63.7789 23C62.8512 23 62.1285 22.7266 61.6109 22.1797C61.1031 21.623 60.942 20.7783 61.1275 19.6455C61.1764 19.3525 61.0934 19.1768 60.8785 19.1182C60.6734 19.0596 60.5074 19.1523 60.3805 19.3965C60.3414 19.4746 60.3121 19.5576 60.2926 19.6455C59.7262 22.4385 59.3404 24.2061 59.1354 24.9482C58.4908 27.3311 57.734 28.6641 56.8648 28.9473C56.7281 28.9863 56.5914 29.0059 56.4547 29.0059C55.0484 29.0059 54.3453 28.3125 54.3453 26.9258C54.3453 26.5742 54.3941 26.1787 54.4918 25.7393C54.5797 25.2998 54.7359 24.7627 54.9605 24.1279C55.1754 23.5029 55.3756 22.9512 55.5611 22.4727C55.7467 21.9941 56.025 21.291 56.3961 20.3633C56.7672 19.4355 57.0553 18.7031 57.2604 18.166C57.6607 17.1113 58.0709 15.9834 58.4908 14.7822C59.4674 11.9014 60.1021 10.1533 60.3951 9.53809C60.7662 8.74707 61.1617 8.27344 61.5816 8.11719C61.7672 8.03906 61.9967 8 62.2701 8C63.1783 8 63.5787 8.3418 63.4713 9.02539C63.442 9.17188 63.4713 9.28906 63.5592 9.37695C63.6568 9.46484 63.7887 9.49902 63.9547 9.47949C64.1207 9.4502 64.2818 9.35742 64.4381 9.20117C65.2584 8.40039 66.235 8 67.3678 8C68.5592 8 69.5113 8.41016 70.2242 9.23047C70.9469 10.041 71.3082 11.1494 71.3082 12.5557C71.3082 13.7959 71.1178 15.0264 70.7369 16.2471C71.6744 16.2471 72.4752 15.7588 73.1393 14.7822ZM64.3355 16.7891C65.0484 16.7891 65.6539 16.4912 66.152 15.8955C66.65 15.29 66.899 14.6504 66.899 13.9766C66.899 13.5078 66.7623 13.127 66.4889 12.834C66.2154 12.5312 65.8004 12.3799 65.2438 12.3799C64.5406 12.3799 63.9547 12.668 63.4859 13.2441C63.0172 13.8203 62.7828 14.46 62.7828 15.1631C62.7828 15.6416 62.9049 16.0322 63.149 16.335C63.4029 16.6377 63.7984 16.7891 64.3355 16.7891ZM88.3514 14.7822C88.4978 14.6357 88.6932 14.5723 88.9373 14.5918C89.1814 14.6113 89.3963 14.7188 89.5818 14.9141C89.7674 15.1094 89.8064 15.3145 89.699 15.5293C89.5623 15.8125 89.3719 16.2178 89.1277 16.7451C88.8934 17.2627 88.7029 17.668 88.5564 17.9609C88.4197 18.2539 88.2391 18.6299 88.0145 19.0889C87.7898 19.5381 87.5896 19.8994 87.4139 20.1729C87.2478 20.4365 87.0477 20.7393 86.8133 21.0811C86.5789 21.4229 86.3494 21.6914 86.1248 21.8867C85.91 22.082 85.6707 22.2773 85.407 22.4727C85.1434 22.6582 84.865 22.7949 84.5721 22.8828C84.2791 22.9609 83.9764 23 83.6639 23C83.2146 23 82.868 22.7803 82.6238 22.3408C81.6668 25.4072 80.6219 27.5898 79.4891 28.8887C78.366 30.1875 76.9695 30.8369 75.2996 30.8369C73.7176 30.8369 72.492 30.4219 71.6228 29.5918C70.7537 28.7715 70.3191 27.6338 70.3191 26.1787C70.3191 24.8213 70.6902 23.7178 71.4324 22.8682C71.8035 22.4482 72.1111 22.2432 72.3553 22.2529C72.4529 22.2627 72.5066 22.3115 72.5164 22.3994C72.5945 23.1709 72.907 23.7861 73.4539 24.2451C74.0008 24.7041 74.7283 24.9287 75.6365 24.9189C76.9353 24.9092 78.0828 24.3721 79.0789 23.3076C80.075 22.2529 80.6561 20.9883 80.8221 19.5137C80.8416 19.2988 80.8025 19.1426 80.7049 19.0449C80.6072 18.9375 80.4852 18.9229 80.3387 19.001C80.1922 19.0693 80.075 19.2207 79.9871 19.4551C79.577 20.4805 79.0057 21.2812 78.2732 21.8574C77.5506 22.4238 76.7107 22.707 75.7537 22.707C74.8846 22.707 74.1717 22.4287 73.615 21.8721C73.0584 21.3057 72.7801 20.4805 72.7801 19.3965C72.7801 17.7461 72.9998 16.208 73.4393 14.7822C74.1521 12.5166 74.865 10.8223 75.5779 9.69922C76.2908 8.56641 77.0574 8 77.8777 8C78.5027 8 78.8152 8.40039 78.8152 9.20117C78.8152 9.86523 78.5906 10.8418 78.1414 12.1309C77.6922 13.4199 77.4676 14.3525 77.4676 14.9287C77.4676 15.3779 77.5603 15.7148 77.7459 15.9395C77.9314 16.1641 78.2586 16.2764 78.7273 16.2764C79.3621 16.2764 79.8797 16.0908 80.2801 15.7197C80.6902 15.3486 81.0223 14.7969 81.2762 14.0645C81.9109 12.0332 82.5457 10.5146 83.1805 9.50879C83.825 8.50293 84.5184 8 85.2605 8C85.7098 8 86.0467 8.10254 86.2713 8.30762C86.4959 8.5127 86.6082 8.84961 86.6082 9.31836C86.6082 9.68945 86.5252 10.1191 86.3592 10.6074C86.2029 11.0859 85.9441 11.7744 85.5828 12.6729C85.2215 13.5615 84.9139 14.3818 84.66 15.1338C84.4939 15.6904 84.4402 16.1348 84.4988 16.4668C84.5574 16.7988 84.6648 17.0381 84.8211 17.1846C84.9871 17.3213 85.1922 17.3896 85.4363 17.3896C86.1883 17.3896 87.16 16.5205 88.3514 14.7822Z" fill="white"/>
</svg>
