<svg xmlns="http://www.w3.org/2000/svg" width="530" height="184" viewBox="0 0 530 184" fill="none"><path d="M169.549 86.6934C170.076 85.873 170.779 85.375 171.658 85.1992C172.596 84.9648 173.445 85.0527 174.207 85.4629C175.027 85.8145 175.789 86.2832 176.492 86.8691C177.195 87.4551 177.635 88.1582 177.811 88.9785C178.045 89.7988 177.986 90.5312 177.635 91.1758C177.107 92.1133 176.141 93.9883 174.734 96.8008C173.328 99.5547 171.951 102.133 170.604 104.535C169.314 106.938 167.674 109.75 165.682 112.973C163.748 116.195 161.639 119.066 159.354 121.586C157.068 124.105 154.549 126.508 151.795 128.793C149.1 131.078 146.053 132.865 142.654 134.154C139.256 135.385 135.74 136 132.107 136C125.604 136 120.447 134.125 116.639 130.375C112.889 126.625 111.014 121.293 111.014 114.379C111.014 104.652 112.449 95.4824 115.32 86.8691L115.496 86.166C115.906 84.877 116.141 83.7637 116.199 82.8262C116.316 81.8301 116.346 81.0098 116.287 80.3652C116.287 79.7207 116.023 79.1934 115.496 78.7832C115.027 78.373 114.588 78.0508 114.178 77.8164C113.826 77.582 113.152 77.4355 112.156 77.377C111.16 77.2598 110.369 77.2012 109.783 77.2012C109.197 77.2012 108.172 77.2305 106.707 77.2891C105.301 77.2891 104.217 77.2891 103.455 77.2891C102.225 77.2891 101.287 77.3477 100.643 77.4648C100.057 77.5234 99.2949 77.9336 98.3574 78.6953C97.4199 79.3984 96.541 80.5117 95.7207 82.0352C95.0176 83.4414 94.5488 84.4375 94.3145 85.0234C91.502 91.4102 89.7441 95.3945 89.041 96.9766C74.4512 128.031 55.3203 143.559 31.6484 143.559C26.6094 143.559 22.0684 142.68 18.0254 140.922C13.9824 139.223 10.7305 136.938 8.26953 134.066C5.75 131.137 3.8457 127.914 2.55664 124.398C1.20898 120.824 0.535156 117.133 0.535156 113.324C0.535156 105.59 2.79102 98.7637 7.30273 92.8457C11.8145 86.9277 17.5273 83.9688 24.4414 83.9688C25.1445 83.9688 25.7598 84.2031 26.2871 84.6719C26.873 85.082 27.166 85.5801 27.166 86.166C27.166 90.0918 28.8359 93.2852 32.1758 95.7461C35.5156 98.207 39.7051 99.4375 44.7441 99.4375C49.0801 99.4375 53.3867 98.4414 57.6641 96.4492C61.9414 94.3984 66.1309 91 70.2324 86.2539C74.3926 81.4492 77.791 75.5898 80.4277 68.6758C82.0684 64.3984 84.6758 57.8945 88.25 49.1641C91.8242 40.4336 94.3145 34.3398 95.7207 30.8828C90.2129 29.3594 84.9688 29.418 79.9883 31.0586C75.0664 32.6406 71.1406 35.3945 68.2109 39.3203C65.2812 43.2461 63.8164 47.7578 63.8164 52.8555C63.8164 55.375 64.4609 57.5137 65.75 59.2715C67.0391 60.9707 68.6797 61.8203 70.6719 61.8203C71.3164 63.168 71.5215 64.6621 71.2871 66.3027C71.0527 67.9434 70.584 69.6426 69.8809 71.4004C69.2363 73.1582 68.1523 74.8574 66.6289 76.498C65.1641 78.1387 63.5234 79.6035 61.707 80.8926C59.8906 82.1816 57.6934 83.2363 55.1152 84.0566C52.5957 84.8184 49.9297 85.1992 47.1172 85.1992C40.0859 85.1992 34.5781 82.6504 30.5938 77.5527C26.6094 72.3965 24.6172 66.127 24.6172 58.7441C24.6172 51.127 26.2871 43.8613 29.627 36.9473C32.9668 30.0332 37.5078 24.0273 43.25 18.9297C49.0508 13.7734 56.1113 9.67188 64.4316 6.625C72.8105 3.57812 81.7461 2.05469 91.2383 2.05469C102.957 2.05469 110.75 4.66211 114.617 9.87695C118.484 15.0332 118.66 22.2695 115.145 31.5859C112.273 40.5508 109.344 48.7246 106.355 56.1074C106.355 56.2246 106.297 56.3418 106.18 56.459C104.07 61.8496 105.271 64.5449 109.783 64.5449C113.475 64.5449 116.463 64.4277 118.748 64.1934C119.275 64.1348 119.744 64.0762 120.154 64.0176C120.623 63.9004 121.033 63.7539 121.385 63.5781C121.795 63.3438 122.117 63.168 122.352 63.0508C122.645 62.875 122.938 62.582 123.23 62.1719C123.523 61.7031 123.729 61.3516 123.846 61.1172C124.021 60.8828 124.227 60.4434 124.461 59.7988C124.754 59.1543 124.959 58.6855 125.076 58.3926C125.193 58.041 125.398 57.4258 125.691 56.5469C126.043 55.668 126.307 55.0234 126.482 54.6133C129.061 47.1719 131.434 40.8145 133.602 35.541C135.77 30.209 138.084 25.1992 140.545 20.5117C143.064 15.8242 145.555 12.0742 148.016 9.26172C150.535 6.44922 153.289 4.25195 156.277 2.66992C159.324 1.08789 162.547 0.296875 165.945 0.296875C170.691 0.296875 174.412 1.79102 177.107 4.7793C179.861 7.70898 181.238 12.2207 181.238 18.3145C181.238 24.8184 179.656 31.5859 176.492 38.6172C173.387 45.5898 168.904 52.0645 163.045 58.041C157.244 63.959 150.77 68.3535 143.621 71.2246C140.105 72.5723 138.348 75.6777 138.348 80.541C138.348 84.877 139.607 88.5098 142.127 91.4395C144.646 94.3691 148.016 95.834 152.234 95.834C155.574 95.834 158.797 95.043 161.902 93.4609C165.066 91.8789 167.615 89.623 169.549 86.6934ZM145.73 46.5273C144.793 49.3984 144.207 51.6543 143.973 53.2949C143.738 54.877 143.738 55.9023 143.973 56.3711C144.207 56.7812 144.617 56.9863 145.203 56.9863C147.84 56.9863 150.828 54.7598 154.168 50.3066C157.566 45.7949 159.266 41.8398 159.266 38.4414C159.266 35.4531 158.006 33.959 155.486 33.959C153.201 33.959 151.326 35.0723 149.861 37.2988C148.455 39.4668 147.078 42.543 145.73 46.5273ZM255.242 86.6934C256.121 85.8145 257.293 85.4336 258.758 85.5508C260.223 85.668 261.512 86.3125 262.625 87.4844C263.738 88.6562 263.973 89.8867 263.328 91.1758C261.805 94.3984 260.223 97.2695 258.582 99.7891C256.941 102.309 254.861 104.887 252.342 107.523C249.822 110.16 246.805 112.211 243.289 113.676C239.832 115.141 236.023 115.873 231.863 115.873H229.666C225.096 122.143 219.734 127.064 213.582 130.639C207.43 134.213 201.043 136 194.422 136C186.219 136 179.51 133.275 174.295 127.826C169.08 122.318 166.473 114.965 166.473 105.766C166.473 100.375 167.264 94.8672 168.846 89.2422C170.428 83.5586 172.713 78.168 175.701 73.0703C178.689 67.9141 182.146 63.3145 186.072 59.2715C190.057 55.2285 194.627 52.0059 199.783 49.6035C204.998 47.2012 210.389 46 215.955 46C223.924 46 230.281 48.4902 235.027 53.4707C239.832 58.3926 242.234 66.2148 242.234 76.9375C242.234 83.3242 241.355 89.5059 239.598 95.4824H240.828C246.453 95.4824 251.258 92.5527 255.242 86.6934ZM204.617 98.7344C208.895 98.7344 212.527 96.9473 215.516 93.373C218.504 89.7402 219.998 85.9023 219.998 81.8594C219.998 79.0469 219.178 76.7617 217.537 75.0039C215.896 73.1875 213.406 72.2793 210.066 72.2793C205.848 72.2793 202.332 74.0078 199.52 77.4648C196.707 80.9219 195.301 84.7598 195.301 88.9785C195.301 91.8496 196.033 94.1934 197.498 96.0098C199.021 97.8262 201.395 98.7344 204.617 98.7344ZM343.045 86.6934C343.924 85.8145 345.096 85.4336 346.561 85.5508C348.025 85.668 349.314 86.3125 350.428 87.4844C351.541 88.6562 351.775 89.8867 351.131 91.1758C349.959 93.6953 348.758 95.9805 347.527 98.0312C346.297 100.082 344.715 102.279 342.781 104.623C340.906 106.908 338.885 108.842 336.717 110.424C334.607 111.947 332.059 113.236 329.07 114.291C326.082 115.346 322.918 115.873 319.578 115.873H318.523C314.246 122.084 309.324 127.006 303.758 130.639C298.191 134.213 292.566 136 286.883 136C281.316 136 276.98 134.359 273.875 131.078C270.828 127.738 269.861 122.67 270.975 115.873C271.268 114.115 270.77 113.061 269.48 112.709C268.25 112.357 267.254 112.914 266.492 114.379C266.258 114.848 266.082 115.346 265.965 115.873C262.566 132.631 260.252 143.236 259.021 147.689C255.154 161.986 250.613 169.984 245.398 171.684C244.578 171.918 243.758 172.035 242.938 172.035C234.5 172.035 230.281 167.875 230.281 159.555C230.281 157.445 230.574 155.072 231.16 152.436C231.688 149.799 232.625 146.576 233.973 142.768C235.262 139.018 236.463 135.707 237.576 132.836C238.689 129.965 240.359 125.746 242.586 120.18C244.812 114.613 246.541 110.219 247.771 106.996C250.174 100.668 252.635 93.9004 255.154 86.6934C261.014 69.4082 264.822 58.9199 266.58 55.2285C268.807 50.4824 271.18 47.6406 273.699 46.7031C274.812 46.2344 276.189 46 277.83 46C283.279 46 285.682 48.0508 285.037 52.1523C284.861 53.0312 285.037 53.7344 285.564 54.2617C286.15 54.7891 286.941 54.9941 287.938 54.877C288.934 54.7012 289.9 54.1445 290.838 53.207C295.76 48.4023 301.619 46 308.416 46C315.564 46 321.277 48.4609 325.555 53.3828C329.891 58.2461 332.059 64.8965 332.059 73.334C332.059 80.7754 330.916 88.1582 328.631 95.4824C334.256 95.4824 339.061 92.5527 343.045 86.6934ZM290.223 98.7344C294.5 98.7344 298.133 96.9473 301.121 93.373C304.109 89.7402 305.604 85.9023 305.604 81.8594C305.604 79.0469 304.783 76.7617 303.143 75.0039C301.502 73.1875 299.012 72.2793 295.672 72.2793C291.453 72.2793 287.938 74.0078 285.125 77.4648C282.312 80.9219 280.906 84.7598 280.906 88.9785C280.906 91.8496 281.639 94.1934 283.104 96.0098C284.627 97.8262 287 98.7344 290.223 98.7344ZM430.936 86.6934C431.814 85.8145 432.986 85.4336 434.451 85.5508C435.916 85.668 437.205 86.3125 438.318 87.4844C439.432 88.6562 439.666 89.8867 439.021 91.1758C437.85 93.6953 436.648 95.9805 435.418 98.0312C434.188 100.082 432.605 102.279 430.672 104.623C428.797 106.908 426.775 108.842 424.607 110.424C422.498 111.947 419.949 113.236 416.961 114.291C413.973 115.346 410.809 115.873 407.469 115.873H406.414C402.137 122.084 397.215 127.006 391.648 130.639C386.082 134.213 380.457 136 374.773 136C369.207 136 364.871 134.359 361.766 131.078C358.719 127.738 357.752 122.67 358.865 115.873C359.158 114.115 358.66 113.061 357.371 112.709C356.141 112.357 355.145 112.914 354.383 114.379C354.148 114.848 353.973 115.346 353.855 115.873C350.457 132.631 348.143 143.236 346.912 147.689C343.045 161.986 338.504 169.984 333.289 171.684C332.469 171.918 331.648 172.035 330.828 172.035C322.391 172.035 318.172 167.875 318.172 159.555C318.172 157.445 318.465 155.072 319.051 152.436C319.578 149.799 320.516 146.576 321.863 142.768C323.152 139.018 324.354 135.707 325.467 132.836C326.58 129.965 328.25 125.746 330.477 120.18C332.703 114.613 334.432 110.219 335.662 106.996C338.064 100.668 340.525 93.9004 343.045 86.6934C348.904 69.4082 352.713 58.9199 354.471 55.2285C356.697 50.4824 359.07 47.6406 361.59 46.7031C362.703 46.2344 364.08 46 365.721 46C371.17 46 373.572 48.0508 372.928 52.1523C372.752 53.0312 372.928 53.7344 373.455 54.2617C374.041 54.7891 374.832 54.9941 375.828 54.877C376.824 54.7012 377.791 54.1445 378.729 53.207C383.65 48.4023 389.51 46 396.307 46C403.455 46 409.168 48.4609 413.445 53.3828C417.781 58.2461 419.949 64.8965 419.949 73.334C419.949 80.7754 418.807 88.1582 416.521 95.4824C422.146 95.4824 426.951 92.5527 430.936 86.6934ZM378.113 98.7344C382.391 98.7344 386.023 96.9473 389.012 93.373C392 89.7402 393.494 85.9023 393.494 81.8594C393.494 79.0469 392.674 76.7617 391.033 75.0039C389.393 73.1875 386.902 72.2793 383.562 72.2793C379.344 72.2793 375.828 74.0078 373.016 77.4648C370.203 80.9219 368.797 84.7598 368.797 88.9785C368.797 91.8496 369.529 94.1934 370.994 96.0098C372.518 97.8262 374.891 98.7344 378.113 98.7344ZM520.408 86.6934C521.287 85.8145 522.459 85.4336 523.924 85.5508C525.389 85.668 526.678 86.3125 527.791 87.4844C528.904 88.6562 529.139 89.8867 528.494 91.1758C527.674 92.875 526.531 95.3066 525.066 98.4707C523.66 101.576 522.518 104.008 521.639 105.766C520.818 107.523 519.734 109.779 518.387 112.533C517.039 115.229 515.838 117.396 514.783 119.037C513.787 120.619 512.586 122.436 511.18 124.486C509.773 126.537 508.396 128.148 507.049 129.32C505.76 130.492 504.324 131.664 502.742 132.836C501.16 133.949 499.49 134.77 497.732 135.297C495.975 135.766 494.158 136 492.283 136C489.588 136 487.508 134.682 486.043 132.045C480.301 150.443 474.031 163.539 467.234 171.332C460.496 179.125 452.117 183.021 442.098 183.021C432.605 183.021 425.252 180.531 420.037 175.551C414.822 170.629 412.215 163.803 412.215 155.072C412.215 146.928 414.441 140.307 418.895 135.209C421.121 132.689 422.967 131.459 424.432 131.518C425.018 131.576 425.34 131.869 425.398 132.396C425.867 137.025 427.742 140.717 431.023 143.471C434.305 146.225 438.67 147.572 444.119 147.514C451.912 147.455 458.797 144.232 464.773 137.846C470.75 131.518 474.236 123.93 475.232 115.082C475.35 113.793 475.115 112.855 474.529 112.27C473.943 111.625 473.211 111.537 472.332 112.006C471.453 112.416 470.75 113.324 470.223 114.73C467.762 120.883 464.334 125.688 459.939 129.145C455.604 132.543 450.564 134.242 444.822 134.242C439.607 134.242 435.33 132.572 431.99 129.232C428.65 125.834 426.98 120.883 426.98 114.379C426.98 104.477 428.299 95.248 430.936 86.6934C435.213 73.0996 439.49 62.9336 443.768 56.1953C448.045 49.3984 452.645 46 457.566 46C461.316 46 463.191 48.4023 463.191 53.207C463.191 57.1914 461.844 63.0508 459.148 70.7852C456.453 78.5195 455.105 84.1152 455.105 87.5723C455.105 90.2676 455.662 92.2891 456.775 93.6367C457.889 94.9844 459.852 95.6582 462.664 95.6582C466.473 95.6582 469.578 94.5449 471.98 92.3184C474.441 90.0918 476.434 86.7812 477.957 82.3867C481.766 70.1992 485.574 61.0879 489.383 55.0527C493.25 49.0176 497.41 46 501.863 46C504.559 46 506.58 46.6152 507.928 47.8457C509.275 49.0762 509.949 51.0977 509.949 53.9102C509.949 56.1367 509.451 58.7148 508.455 61.6445C507.518 64.5156 505.965 68.6465 503.797 74.0371C501.629 79.3691 499.783 84.291 498.26 88.8027C497.264 92.1426 496.941 94.8086 497.293 96.8008C497.645 98.793 498.289 100.229 499.227 101.107C500.223 101.928 501.453 102.338 502.918 102.338C507.43 102.338 513.26 97.123 520.408 86.6934Z" fill="white"></path></svg>